<?xml version="1.0" encoding="UTF-8" standalone="no"?>
<!-- Created with Inkscape (http://www.inkscape.org/) -->

<svg
   width="960"
   height="960"
   viewBox="0 0 254 254.00001"
   version="1.1"
   id="svg1"
   sodipodi:docname="icon-splash.svg"
   inkscape:version="1.3.2 (091e20ef0f, 2023-11-25)"
   inkscape:export-filename="icon-splash.png"
   inkscape:export-xdpi="96"
   inkscape:export-ydpi="96"
   xmlns:inkscape="http://www.inkscape.org/namespaces/inkscape"
   xmlns:sodipodi="http://sodipodi.sourceforge.net/DTD/sodipodi-0.dtd"
   xmlns="http://www.w3.org/2000/svg"
   xmlns:svg="http://www.w3.org/2000/svg">
  <sodipodi:namedview
     id="namedview1"
     pagecolor="#ffffff"
     bordercolor="#666666"
     borderopacity="1.0"
     inkscape:showpageshadow="2"
     inkscape:pageopacity="0.0"
     inkscape:pagecheckerboard="true"
     inkscape:deskcolor="#d1d1d1"
     inkscape:document-units="mm"
     inkscape:zoom="0.56175834"
     inkscape:cx="400.5281"
     inkscape:cy="769.90401"
     inkscape:window-width="2560"
     inkscape:window-height="1383"
     inkscape:window-x="0"
     inkscape:window-y="0"
     inkscape:window-maximized="1"
     inkscape:current-layer="svg1"
     inkscape:export-bgcolor="#ffffff00" />
  <defs
     id="defs1" />
  <g
     id="g1"
     transform="matrix(0.63861887,0,0,0.63861887,39.955887,21.633645)">
    <path
       id="path5"
       style="fill:#ffffff;fill-opacity:1;stroke-width:0.29343;stroke-linecap:square"
       d="m 123.99266,113.78831 c -0.9772,-13.05278 4.2082,-19.383394 12.2634,-27.066074 8.0553,-7.68267 12.0743,-15.34906 11.4624,-27.3928 -3.1175,-1.31487 -6.4364,-2.08874 -9.814,-2.28838 -16.42,-0.88594 -30.4492,11.70691 -31.335,28.12684 -0.6208,12.21289 6.2891,23.563484 17.4232,28.620414 z m 11.9461,-62.749274 c 2.9505,-0.0316 5.9529,0.30355 8.9506,1.03991 l 0.02,0.007 c 18.2162,4.5525 29.8459,22.50822 26.5773,40.98962 -2.4719,13.772114 -12.7612,24.836884 -26.328,28.311594 -3.3045,0.84635 -6.7131,1.21633 -10.1224,1.09813 -1.7026,-0.0588 -3.3988,-0.23924 -5.0757,-0.53959 -0.7238,-0.13264 -1.4334,-0.27773 -2.1477,-0.45474 l -0.01,-0.002 c -19.1856,-4.71308 -30.914804,-24.071524 -26.1975,-43.238404 3.9803,-16.17206 18.3976,-27.041 34.3302,-27.21182 z m 0.3701,-15.06281 c -3.7526,-3.8e-4 -10.3718,11.32223 -13.8984,12.605 -3.5266,1.28275 -15.8741,-3.14118 -18.7493,-0.72962 -2.8751,2.41156 -0.6675,15.34042 -2.5444,18.5899 -1.877004,3.2495 -14.179504,7.79711 -14.831904,11.49259 -0.6523,3.69548 9.3491,12.18084 10,15.87658 0.6509,3.69574 -5.8497,15.087024 -3.9741,18.337284 1.8757,3.25023 14.991404,3.32148 17.865604,5.73421 2.8742,2.41274 5.2167,15.3176 8.7428,16.6018 3.5261,1.28419 13.6189,-7.09176 17.3716,-7.09102 3.7526,3.8e-4 13.8422,8.38091 17.3688,7.09815 3.5266,-1.28275 5.8742,-14.18694 8.7494,-16.59849 2.8752,-2.41158 15.9911,-2.47731 17.868,-5.72681 1.877,-3.24947 -4.6192,-14.643724 -3.9669,-18.339194 0.6524,-3.69549 10.6572,-12.17643 10.0063,-15.87219 -0.6509,-3.69574 -12.9512,-8.24838 -14.8269,-11.49862 -1.8757,-3.25026 0.3369,-16.17829 -2.5373,-18.59101 -2.8742,-2.41273 -15.2235,2.00611 -18.7495,0.72193 -3.5261,-1.28419 -10.1411,-12.60973 -13.8938,-12.61049 z" />
    <text
       xml:space="preserve"
       style="font-style:italic;font-weight:300;font-size:91.3227px;line-height:37.4566px;font-family:Baskerville;-inkscape-font-specification:'Baskerville, Light Italic';text-align:justify;letter-spacing:0px;word-spacing:0px;writing-mode:lr-tb;fill:none;stroke:#000000;stroke-width:0.85615px;stroke-linecap:butt;stroke-linejoin:miter;stroke-opacity:1"
       x="19.484245"
       y="235.75977"
       id="text1"><tspan
         sodipodi:role="line"
         id="tspan1"
         style="font-style:normal;font-variant:normal;font-weight:bold;font-stretch:normal;font-size:91.3227px;line-height:37.4566px;font-family:Comfortaa;-inkscape-font-specification:Comfortaa;fill:#ffffff;fill-opacity:1;stroke:none;stroke-width:0.85615px"
         x="19.484245"
         y="235.75977">Click</tspan></text>
  </g>
</svg>
