<?xml version="1.0" encoding="UTF-8" standalone="no"?>
<!-- Created with Inkscape (http://www.inkscape.org/) -->

<svg
   width="1024"
   height="1024"
   viewBox="0 0 270.93333 270.93334"
   version="1.1"
   id="svg1"
   sodipodi:docname="icon-in-app.svg"
   inkscape:version="1.3.2 (091e20ef0f, 2023-11-25)"
   inkscape:export-filename="icon-in-app.png"
   inkscape:export-xdpi="96"
   inkscape:export-ydpi="96"
   xmlns:inkscape="http://www.inkscape.org/namespaces/inkscape"
   xmlns:sodipodi="http://sodipodi.sourceforge.net/DTD/sodipodi-0.dtd"
   xmlns="http://www.w3.org/2000/svg"
   xmlns:svg="http://www.w3.org/2000/svg">
  <sodipodi:namedview
     id="namedview1"
     pagecolor="#ffffff"
     bordercolor="#666666"
     borderopacity="1.0"
     inkscape:showpageshadow="2"
     inkscape:pageopacity="0.0"
     inkscape:pagecheckerboard="true"
     inkscape:deskcolor="#d1d1d1"
     inkscape:document-units="mm"
     inkscape:zoom="0.79444626"
     inkscape:cx="728.18015"
     inkscape:cy="546.92183"
     inkscape:window-width="2560"
     inkscape:window-height="1383"
     inkscape:window-x="0"
     inkscape:window-y="0"
     inkscape:window-maximized="1"
     inkscape:current-layer="svg1"
     inkscape:export-bgcolor="#ffffff00" />
  <defs
     id="defs1" />
  <path
     id="path5"
     style="fill:#ffffff;fill-opacity:1;stroke-width:0.776489;stroke-linecap:square"
     d="m 102.8936,206.9619 c -2.586,-34.54096 11.13596,-51.29335 32.45211,-71.62365 21.31616,-20.33029 31.95151,-40.617497 30.3323,-72.488255 -8.24977,-3.479487 -17.03232,-5.527351 -25.97027,-6.055658 -43.451455,-2.344391 -80.5763,30.97944 -82.920436,74.430723 -1.642735,32.31839 16.642614,62.35493 46.106296,75.73684 z M 134.50588,40.911498 c 7.8077,-0.08367 15.75285,0.803255 23.68567,2.751866 l 0.0517,0.0183 c 48.20485,12.047053 78.97983,59.562436 70.33037,108.468896 -6.54131,36.44447 -33.76948,65.72465 -69.67052,74.91961 -8.74446,2.23965 -17.76462,3.21871 -26.78639,2.90593 -4.50547,-0.15568 -8.99423,-0.63311 -13.43168,-1.42789 -1.9154,-0.35101 -3.79321,-0.73496 -5.68325,-1.20336 l -0.017,-0.004 C 62.214786,214.86886 31.176281,163.64154 43.659642,112.92112 54.192542,70.125775 92.344228,41.363818 134.50594,40.911792 Z M 135.4853,1.0514982 C 125.55488,1.0500301 108.03884,31.012964 98.7066,34.407488 89.37438,37.801993 56.699752,26.095146 49.09132,32.476742 41.482889,38.858351 47.324981,73.071364 42.358042,81.670319 37.391089,90.269311 4.8357439,102.30344 3.1093755,112.0826 c -1.7263664,9.77918 24.7398415,32.23358 26.4622455,42.01345 1.722466,9.77986 -15.479784,39.92405 -10.516295,48.52506 4.963505,8.60095 39.670985,8.78948 47.276867,15.17417 7.605861,6.38472 13.80471,40.53424 23.135591,43.93256 9.330918,3.39829 36.039156,-18.7666 45.969576,-18.76462 9.93045,9.9e-4 36.63012,22.178 45.96234,18.78349 9.33224,-3.39449 15.5446,-37.54223 23.15304,-43.92381 7.60845,-6.38163 42.31649,-6.55557 47.28339,-15.15456 4.96696,-8.59892 -12.22372,-38.75099 -10.49741,-48.53013 1.72639,-9.7792 28.20145,-32.22192 26.47899,-42.00183 -1.72246,-9.77986 -34.2721,-21.827292 -39.2356,-30.428247 -4.96349,-8.601012 0.89151,-42.811853 -6.71438,-49.196501 -7.60587,-6.384691 -40.28515,5.308666 -49.61601,1.910387 C 162.92084,31.02374 145.4158,1.0534946 135.4853,1.0514982 Z" />
</svg>
