<?xml version="1.0" encoding="UTF-8" standalone="no"?>
<!-- Created with Inkscape (http://www.inkscape.org/) -->

<svg
   width="1024"
   height="1024"
   viewBox="0 0 270.93333 270.93334"
   version="1.1"
   id="svg1"
   sodipodi:docname="icon-ios.svg"
   inkscape:version="1.3.2 (091e20ef0f, 2023-11-25)"
   inkscape:export-filename="icon-ios.png"
   inkscape:export-xdpi="96"
   inkscape:export-ydpi="96"
   xmlns:inkscape="http://www.inkscape.org/namespaces/inkscape"
   xmlns:sodipodi="http://sodipodi.sourceforge.net/DTD/sodipodi-0.dtd"
   xmlns="http://www.w3.org/2000/svg"
   xmlns:svg="http://www.w3.org/2000/svg">
  <sodipodi:namedview
     id="namedview1"
     pagecolor="#ffffff"
     bordercolor="#666666"
     borderopacity="1.0"
     inkscape:showpageshadow="2"
     inkscape:pageopacity="0.0"
     inkscape:pagecheckerboard="true"
     inkscape:deskcolor="#d1d1d1"
     inkscape:document-units="mm"
     inkscape:zoom="0.79444626"
     inkscape:cx="727.55078"
     inkscape:cy="549.4393"
     inkscape:window-width="2560"
     inkscape:window-height="1383"
     inkscape:window-x="0"
     inkscape:window-y="0"
     inkscape:window-maximized="1"
     inkscape:current-layer="svg1"
     inkscape:export-bgcolor="#ffffff00" />
  <defs
     id="defs1" />
  <path
     id="rect1"
     style="fill:#dcbf64;stroke-width:5.787;stroke-linecap:square;fill-opacity:1"
     d="M 0,0 H 270.93332 V 270.93332 H 0 Z"
     sodipodi:nodetypes="ccccc" />
  <path
     id="path5"
     style="fill:#ffffff;fill-opacity:1;stroke-width:0.591428;stroke-linecap:square"
     d="m 110.65934,190.97793 c -1.96967,-26.30885 8.48191,-39.06865 24.71771,-54.55364 16.23585,-15.48498 24.33644,-30.93715 23.10315,-55.212175 -6.28359,-2.650224 -12.97298,-4.210021 -19.78072,-4.612417 -33.09557,-1.785653 -61.372351,23.596122 -63.157804,56.691692 -1.251218,24.61597 12.676139,47.49392 35.117664,57.68654 z M 134.73739,64.502205 c 5.94687,-0.06372 11.99844,0.611817 18.0406,2.096016 l 0.0393,0.01399 c 36.71606,9.175886 60.15637,45.366959 53.56835,82.617569 -4.98229,27.75868 -25.7211,50.06053 -53.06576,57.06406 -6.66037,1.70588 -13.53073,2.4516 -20.40232,2.21336 -3.43168,-0.11859 -6.85063,-0.48222 -10.23047,-1.08757 -1.45891,-0.26736 -2.88918,-0.55981 -4.32876,-0.91657 l -0.0124,-0.003 C 79.676048,197.00023 56.035028,157.98189 65.543197,119.34963 73.565765,86.753682 102.62466,64.846539 134.73787,64.502244 Z m 0.74599,-30.360189 c -7.56367,-0.0011 -20.90507,22.820767 -28.01314,25.406277 -7.10804,2.585494 -31.995249,-6.331267 -37.790345,-1.470593 -5.795094,4.860684 -1.345362,30.919729 -5.128518,37.46931 -3.783169,6.5496 -28.579516,15.71563 -29.894435,23.16413 -1.314918,7.44851 18.843534,24.55138 20.155433,32.00042 1.311946,7.44902 -11.790449,30.40897 -8.00992,36.9601 3.78054,6.55111 30.2161,6.69469 36.009258,11.55772 5.793126,4.86306 10.514597,30.87374 17.621627,33.46214 7.10706,2.58837 27.44985,-14.29396 35.01353,-14.29245 7.5637,7.5e-4 27.89998,16.89233 35.00802,14.30683 7.10807,-2.58548 11.83981,-28.59482 17.63491,-33.45547 5.79512,-4.86071 32.23112,-4.99319 36.01424,-11.54279 3.78317,-6.54954 -9.31041,-29.51549 -7.99555,-36.96397 1.31495,-7.44853 21.48013,-24.54249 20.16819,-31.99156 -1.31194,-7.44904 -26.10395,-16.62521 -29.88448,-23.1763 -3.78052,-6.55115 0.67903,-32.608536 -5.11413,-37.471535 -5.79314,-4.863033 -30.68388,4.043455 -37.7909,1.455086 -7.10703,-2.58837 -20.44004,-25.415825 -28.00379,-25.417345 z" />
</svg>
